<svg version="1.2" xmlns="http://www.w3.org/2000/svg" xmlns:xlink="http://www.w3.org/1999/xlink" overflow="visible" preserveAspectRatio="none" viewBox="0 0 16 24" width="16" height="24"><g transform="translate(0, 0)"><g transform="translate(0, 0) rotate(0)"><path style="stroke-width: 0; stroke-linecap: butt; stroke-linejoin: miter; fill: rgb(250, 250, 250);" d="M16,0h-16v20.57446l14.5882,3.42554v-3.46655h1.4118zM13.17639,22.22351l-7.19779,-1.69006h7.19779zM14.5882,19.12701h-13.17639v-17.72058h13.17639zM15.0882,19.62701v0c-1,-1 -1,-1 -1,-1v0z" vector-effect="non-scaling-stroke"/></g><defs><path id="path-1613537178220419" d="M16,0h-16v20.57446l14.5882,3.42554v-3.46655h1.4118zM13.17639,22.22351l-7.19779,-1.69006h7.19779zM14.5882,19.12701h-13.17639v-17.72058h13.17639zM15.0882,19.62701v0c-1,-1 -1,-1 -1,-1v0z" vector-effect="non-scaling-stroke"/></defs></g></svg>