<svg version="1.2" xmlns="http://www.w3.org/2000/svg" xmlns:xlink="http://www.w3.org/1999/xlink" overflow="visible" preserveAspectRatio="none" viewBox="0 0 15.000004807760737 24" width="15.000004807760737" height="24"><g transform="translate(0, 0)"><g transform="translate(-0.000005527761932622426, 1.3322676295501878e-15) rotate(0)"><path style="stroke-width: 0; stroke-linecap: butt; stroke-linejoin: miter; fill: rgb(31, 77, 116);" d="M14.88502,14.37152c-0.08763,-0.1012 -0.21395,-0.15919 -0.34669,-0.15919h-1.35261c0.23335,-0.31116 0.41373,-0.68822 0.52145,-1.11384l0.00185,-0.00727c0.18357,-0.72553 0.52528,-2.07604 1.08805,-2.7846c0.2212,-0.27848 0.05291,-0.70865 -0.29498,-0.75839c-0.07586,-0.01087 -1.20519,-0.15891 -2.73786,0.33764l-3.62756,-6.50497c0.60834,-0.27562 1.03362,-0.89517 1.03362,-1.61404c0.00005,-0.97425 -0.78065,-1.76686 -1.7403,-1.76686c-0.95965,0 -1.74035,0.79261 -1.74035,1.76686c0,0.71672 0.42278,1.33472 1.02826,1.61156l-3.83182,6.72139c-0.62602,-0.18792 -1.33386,-0.3128 -2.11133,-0.3128c-0.31581,0 -0.54283,0.33014 -0.43299,0.63145c0.00522,0.01425 0.52316,1.43953 0.83042,2.66034c0.10919,0.43392 0.29235,0.81769 0.52893,1.13358h-1.23949c-0.27407,0 -0.49296,0.25242 -0.45792,0.52861c0.00254,0.02011 0.25486,2.02612 0.25486,3.45881c0,1.94156 0.9138,2.98185 1.33779,3.35999v0.99984c0,0.7942 0.63641,1.44037 1.41868,1.44037h8.96985c0.78227,0 1.41868,-0.64612 1.41868,-1.44037v-0.99984c0.42398,-0.37819 1.33779,-1.41843 1.33779,-3.35999c0,-1.43268 0.25232,-3.4387 0.25486,-3.45881c0.01699,-0.13364 -0.0235,-0.26827 -0.11118,-0.36947zM13.61206,10.47204c-0.3967,0.80217 -0.63724,1.75289 -0.79746,2.38593l-0.00185,0.00727c-0.20389,0.80573 -0.75798,1.34709 -1.37879,1.34709h-3.54243v-2.40665c0.33654,0.35147 0.5401,0.63666 0.54509,0.64373c0.15776,0.22514 0.48419,0.26128 0.68605,0.07566c0.97637,-0.89611 2.14905,-1.57809 3.43476,-1.88784c0.34642,-0.08344 0.69934,-0.1402 1.05462,-0.16519zM8.87391,11.50521c-0.22554,-0.26555 -0.56277,-0.62559 -0.98237,-0.96511v-5.69591l3.00075,5.38115c-0.64255,0.2933 -1.32791,0.70458 -2.01839,1.27987zM7.42998,0.9375c0.45044,0 0.81689,0.37205 0.81689,0.82936c0,0.309 -0.1676,0.57853 -0.41503,0.72122c-0.07923,-0.14241 -0.22942,-0.23869 -0.40201,-0.23869c-0.17254,0 -0.32269,0.09623 -0.40196,0.23855c-0.24733,-0.14273 -0.41484,-0.41222 -0.41484,-0.72108c0.00005,-0.45731 0.3665,-0.82936 0.81694,-0.82936zM6.96813,4.81101v5.12061c-0.40265,-0.20559 -0.8439,-0.35301 -1.31045,-0.38672c-0.2634,-0.01945 -0.49462,0.20006 -0.49462,0.46762v1.19348c-0.35648,-0.24895 -0.82664,-0.53339 -1.39485,-0.78192zM2.06687,12.84668c-0.18717,-0.74362 -0.44277,-1.54158 -0.62658,-2.0864c2.25252,0.24244 3.74244,1.63739 3.85292,1.74375c0.13786,0.13612 0.34794,0.18169 0.52473,0.09937c0.1609,-0.07495 0.26867,-0.24619 0.26867,-0.42581v-1.60237c0.31239,0.09623 0.60968,0.25406 0.88153,0.43814v3.19903h-3.52507c-0.61758,-0.00005 -1.1706,-0.54886 -1.3762,-1.3657zM13.81798,18.19979c0,0.81764 -0.18976,1.52709 -0.56402,2.10862c-0.18071,0.28073 -0.36364,0.46308 -0.47038,0.55692h-3.21097c-0.255,0 -0.4617,0.20986 -0.4617,0.46875c0,0.25889 0.2067,0.46875 0.4617,0.46875h2.90758v0.7568c0,0.27727 -0.22217,0.50287 -0.49527,0.50287h-8.9699c-0.2731,0 -0.49527,-0.22556 -0.49527,-0.50287v-0.7568h2.97361c0.255,0 0.4617,-0.20986 0.4617,-0.46875c0,-0.25889 -0.2067,-0.46875 -0.4617,-0.46875h-3.27676c-0.10772,-0.09459 -0.29032,-0.2768 -0.47062,-0.55692c-0.37426,-0.58153 -0.56402,-1.29098 -0.56402,-2.10862c0,-1.04512 -0.12323,-2.33854 -0.20093,-3.04992h13.03788c-0.0777,0.71137 -0.20093,2.00479 -0.20093,3.04992z" vector-effect="non-scaling-stroke"/></g><defs><path id="path-1613537178219415" d="M14.88502,14.37152c-0.08763,-0.1012 -0.21395,-0.15919 -0.34669,-0.15919h-1.35261c0.23335,-0.31116 0.41373,-0.68822 0.52145,-1.11384l0.00185,-0.00727c0.18357,-0.72553 0.52528,-2.07604 1.08805,-2.7846c0.2212,-0.27848 0.05291,-0.70865 -0.29498,-0.75839c-0.07586,-0.01087 -1.20519,-0.15891 -2.73786,0.33764l-3.62756,-6.50497c0.60834,-0.27562 1.03362,-0.89517 1.03362,-1.61404c0.00005,-0.97425 -0.78065,-1.76686 -1.7403,-1.76686c-0.95965,0 -1.74035,0.79261 -1.74035,1.76686c0,0.71672 0.42278,1.33472 1.02826,1.61156l-3.83182,6.72139c-0.62602,-0.18792 -1.33386,-0.3128 -2.11133,-0.3128c-0.31581,0 -0.54283,0.33014 -0.43299,0.63145c0.00522,0.01425 0.52316,1.43953 0.83042,2.66034c0.10919,0.43392 0.29235,0.81769 0.52893,1.13358h-1.23949c-0.27407,0 -0.49296,0.25242 -0.45792,0.52861c0.00254,0.02011 0.25486,2.02612 0.25486,3.45881c0,1.94156 0.9138,2.98185 1.33779,3.35999v0.99984c0,0.7942 0.63641,1.44037 1.41868,1.44037h8.96985c0.78227,0 1.41868,-0.64612 1.41868,-1.44037v-0.99984c0.42398,-0.37819 1.33779,-1.41843 1.33779,-3.35999c0,-1.43268 0.25232,-3.4387 0.25486,-3.45881c0.01699,-0.13364 -0.0235,-0.26827 -0.11118,-0.36947zM13.61206,10.47204c-0.3967,0.80217 -0.63724,1.75289 -0.79746,2.38593l-0.00185,0.00727c-0.20389,0.80573 -0.75798,1.34709 -1.37879,1.34709h-3.54243v-2.40665c0.33654,0.35147 0.5401,0.63666 0.54509,0.64373c0.15776,0.22514 0.48419,0.26128 0.68605,0.07566c0.97637,-0.89611 2.14905,-1.57809 3.43476,-1.88784c0.34642,-0.08344 0.69934,-0.1402 1.05462,-0.16519zM8.87391,11.50521c-0.22554,-0.26555 -0.56277,-0.62559 -0.98237,-0.96511v-5.69591l3.00075,5.38115c-0.64255,0.2933 -1.32791,0.70458 -2.01839,1.27987zM7.42998,0.9375c0.45044,0 0.81689,0.37205 0.81689,0.82936c0,0.309 -0.1676,0.57853 -0.41503,0.72122c-0.07923,-0.14241 -0.22942,-0.23869 -0.40201,-0.23869c-0.17254,0 -0.32269,0.09623 -0.40196,0.23855c-0.24733,-0.14273 -0.41484,-0.41222 -0.41484,-0.72108c0.00005,-0.45731 0.3665,-0.82936 0.81694,-0.82936zM6.96813,4.81101v5.12061c-0.40265,-0.20559 -0.8439,-0.35301 -1.31045,-0.38672c-0.2634,-0.01945 -0.49462,0.20006 -0.49462,0.46762v1.19348c-0.35648,-0.24895 -0.82664,-0.53339 -1.39485,-0.78192zM2.06687,12.84668c-0.18717,-0.74362 -0.44277,-1.54158 -0.62658,-2.0864c2.25252,0.24244 3.74244,1.63739 3.85292,1.74375c0.13786,0.13612 0.34794,0.18169 0.52473,0.09937c0.1609,-0.07495 0.26867,-0.24619 0.26867,-0.42581v-1.60237c0.31239,0.09623 0.60968,0.25406 0.88153,0.43814v3.19903h-3.52507c-0.61758,-0.00005 -1.1706,-0.54886 -1.3762,-1.3657zM13.81798,18.19979c0,0.81764 -0.18976,1.52709 -0.56402,2.10862c-0.18071,0.28073 -0.36364,0.46308 -0.47038,0.55692h-3.21097c-0.255,0 -0.4617,0.20986 -0.4617,0.46875c0,0.25889 0.2067,0.46875 0.4617,0.46875h2.90758v0.7568c0,0.27727 -0.22217,0.50287 -0.49527,0.50287h-8.9699c-0.2731,0 -0.49527,-0.22556 -0.49527,-0.50287v-0.7568h2.97361c0.255,0 0.4617,-0.20986 0.4617,-0.46875c0,-0.25889 -0.2067,-0.46875 -0.4617,-0.46875h-3.27676c-0.10772,-0.09459 -0.29032,-0.2768 -0.47062,-0.55692c-0.37426,-0.58153 -0.56402,-1.29098 -0.56402,-2.10862c0,-1.04512 -0.12323,-2.33854 -0.20093,-3.04992h13.03788c-0.0777,0.71137 -0.20093,2.00479 -0.20093,3.04992z" vector-effect="non-scaling-stroke"/></defs></g></svg>