<svg version="1.2" xmlns="http://www.w3.org/2000/svg" xmlns:xlink="http://www.w3.org/1999/xlink" overflow="visible" preserveAspectRatio="none" viewBox="0 0 7.900427817139189 12.689661411505341" width="7.900427817139189" height="12.689661411505341"><g transform="translate(0, 0)"><defs><path id="path-1613630622366409" d="M11.363413793103291 8.983401188918323 C11.363413793103291 8.983401188918323 9.655172413792942 10.691639348662466 9.655172413792942 10.691639348662466 C9.655172413792942 10.691639348662466 9.655172413792942 1.655139138638241 9.655172413792942 1.655139138638241 C9.655172413792942 1.1980767588377397 9.284649448135664 0.8275544915145727 8.827586206896388 0.8275544915145727 C8.370522965657106 0.8275544915145727 7.999999999999833 1.1980767588377397 7.999999999999833 1.655139138638241 C7.999999999999833 1.655139138638241 7.999999999999833 10.691639348662466 7.999999999999833 10.691639348662466 C7.999999999999833 10.691639348662466 6.2917586206894835 8.983401188918323 6.2917586206894835 8.983401188918323 C6.082880990827957 8.773384822435679 5.777687862394293 8.69101542307663 5.491507239464149 8.767419177966504 C5.205326616534004 8.843822932856378 4.981800791215504 9.067348336890038 4.905396892325248 9.353528420448248 C4.8289929934349916 9.639708504006457 4.911362548038044 9.944901057234826 5.121379310344652 10.153778293419343 C5.121379310344652 10.153778293419343 8.242379310344662 13.274806893884477 8.242379310344662 13.274806893884477 C8.397583056171694 13.430018345229078 8.608089309069069 13.517215903019915 8.827586206896388 13.517215903019915 C9.047083104723706 13.517215903019915 9.257589357621079 13.430018345229078 9.412793103448113 13.274806893884477 C9.412793103448113 13.274806893884477 12.533793103448122 10.153778293419343 12.533793103448122 10.153778293419343 C12.743809865754843 9.944901057234851 12.826179420357983 9.639708504006423 12.749775521467742 9.353528420448145 C12.673371622577498 9.067348336889866 12.449845797258945 8.843822932856153 12.163665174328731 8.767419177966293 C11.877484551398513 8.691015423076434 11.572291422964792 8.773384822435565 11.363413793103291 8.983401188918323 Z" vector-effect="non-scaling-stroke"/></defs><g transform="translate(-4.877372298326888, -0.8275544915145732)"><path style="stroke-width: 0; stroke-linecap: butt; stroke-linejoin: miter; fill: rgb(250, 250, 250);" d="M11.363413793103291 8.983401188918323 C11.363413793103291 8.983401188918323 9.655172413792942 10.691639348662466 9.655172413792942 10.691639348662466 C9.655172413792942 10.691639348662466 9.655172413792942 1.655139138638241 9.655172413792942 1.655139138638241 C9.655172413792942 1.1980767588377397 9.284649448135664 0.8275544915145727 8.827586206896388 0.8275544915145727 C8.370522965657106 0.8275544915145727 7.999999999999833 1.1980767588377397 7.999999999999833 1.655139138638241 C7.999999999999833 1.655139138638241 7.999999999999833 10.691639348662466 7.999999999999833 10.691639348662466 C7.999999999999833 10.691639348662466 6.2917586206894835 8.983401188918323 6.2917586206894835 8.983401188918323 C6.082880990827957 8.773384822435679 5.777687862394293 8.69101542307663 5.491507239464149 8.767419177966504 C5.205326616534004 8.843822932856378 4.981800791215504 9.067348336890038 4.905396892325248 9.353528420448248 C4.8289929934349916 9.639708504006457 4.911362548038044 9.944901057234826 5.121379310344652 10.153778293419343 C5.121379310344652 10.153778293419343 8.242379310344662 13.274806893884477 8.242379310344662 13.274806893884477 C8.397583056171694 13.430018345229078 8.608089309069069 13.517215903019915 8.827586206896388 13.517215903019915 C9.047083104723706 13.517215903019915 9.257589357621079 13.430018345229078 9.412793103448113 13.274806893884477 C9.412793103448113 13.274806893884477 12.533793103448122 10.153778293419343 12.533793103448122 10.153778293419343 C12.743809865754843 9.944901057234851 12.826179420357983 9.639708504006423 12.749775521467742 9.353528420448145 C12.673371622577498 9.067348336889866 12.449845797258945 8.843822932856153 12.163665174328731 8.767419177966293 C11.877484551398513 8.691015423076434 11.572291422964792 8.773384822435565 11.363413793103291 8.983401188918323 Z" vector-effect="non-scaling-stroke"/></g></g></svg>