<svg version="1.2" xmlns="http://www.w3.org/2000/svg" xmlns:xlink="http://www.w3.org/1999/xlink" overflow="visible" preserveAspectRatio="none" viewBox="0 0 24.00002 24" width="24.00002" height="24"><g transform="translate(0, 0)"><g transform="translate(0, 0) rotate(0)"><path style="stroke-width: 0; stroke-linecap: butt; stroke-linejoin: miter; fill: rgb(31, 77, 116);" d="M22.6875,3.72327c0,1.10457 -0.89543,2 -2,2h-17.1875c-1.10457,0 -2,-0.89543 -2,-2v-0.22327c0,-1.10457 0.89543,-2 2,-2h17.1875c1.10457,0 2,0.89543 2,2zM2,0c-1.10457,0 -2,0.89543 -2,2v4.30408c0,0.40408 0.32757,0.73165 0.73165,0.73165v0c0.40408,0 0.75873,0.32645 0.79214,0.72915l1.19469,14.40048c0.08406,1.01325 0.97643,1.83464 1.99315,1.83464h14.57676c1.01673,0 1.90909,-0.8214 1.99315,-1.83464l1.19469,-14.40048c0.03341,-0.4027 0.38806,-0.72915 0.79214,-0.72915v0c0.40408,0 0.73165,-0.32757 0.73165,-0.73165v-4.30408c0,-1.10457 -0.89543,-2 -2,-2z" vector-effect="non-scaling-stroke"/></g><defs><path id="path-16135371785371072" d="M22.6875,3.72327c0,1.10457 -0.89543,2 -2,2h-17.1875c-1.10457,0 -2,-0.89543 -2,-2v-0.22327c0,-1.10457 0.89543,-2 2,-2h17.1875c1.10457,0 2,0.89543 2,2zM2,0c-1.10457,0 -2,0.89543 -2,2v4.30408c0,0.40408 0.32757,0.73165 0.73165,0.73165v0c0.40408,0 0.75873,0.32645 0.79214,0.72915l1.19469,14.40048c0.08406,1.01325 0.97643,1.83464 1.99315,1.83464h14.57676c1.01673,0 1.90909,-0.8214 1.99315,-1.83464l1.19469,-14.40048c0.03341,-0.4027 0.38806,-0.72915 0.79214,-0.72915v0c0.40408,0 0.73165,-0.32757 0.73165,-0.73165v-4.30408c0,-1.10457 -0.89543,-2 -2,-2z" vector-effect="non-scaling-stroke"/></defs></g></svg>