<svg version="1.2" xmlns="http://www.w3.org/2000/svg" xmlns:xlink="http://www.w3.org/1999/xlink" overflow="visible" preserveAspectRatio="none" viewBox="0 0 24 24" width="24" height="24"><g><path xmlns:default="http://www.w3.org/2000/svg" id="eur" d="M16.92,16.93c-0.02-0.09-0.08-0.17-0.16-0.22c-0.09-0.04-0.18-0.04-0.27,0h-0.05h-0.12h-0.19l-0.26,0.05h-0.31  h-0.35h-0.37c-1.73,0.02-3.3-1.03-3.94-2.64h4c0.14,0.03,0.28-0.02,0.36-0.14l0.25-1.17c0.02-0.1,0-0.2-0.06-0.28  c-0.06-0.08-0.16-0.12-0.26-0.12h-4.78c-0.02-0.36-0.02-0.73,0-1.09h5.08c0.16,0.02,0.31-0.1,0.33-0.27c0,0,0,0,0,0l0.21-1.15  c0.03-0.18-0.09-0.36-0.27-0.39c-0.02,0-0.04-0.01-0.06-0.01h-4.84c0.33-0.75,0.88-1.39,1.57-1.83c0.7-0.45,1.52-0.69,2.35-0.69  c0.1-0.02,0.21-0.02,0.31,0h0.3h0.27h0.23h0.18h0.12l0,0c0.08,0.04,0.17,0.04,0.25,0c0.06,0.02,0.13,0.02,0.19,0l0.4-1.68  c0.03-0.08,0.03-0.17,0-0.25c-0.05-0.08-0.12-0.13-0.21-0.16c-0.65-0.16-1.33-0.24-2-0.24c-1.5-0.02-2.96,0.45-4.17,1.33  C9.45,6.85,8.56,8.09,8.12,9.5h-1C6.95,9.5,6.8,9.64,6.79,9.81c0,0.01,0,0.01,0,0.02v1.15c-0.01,0.18,0.13,0.32,0.31,0.33  c0.01,0,0.01,0,0.02,0h0.7c0,0.33,0,0.7,0,1.09H7.09c-0.18,0.01-0.32,0.15-0.33,0.33v1.25c0.01,0.18,0.15,0.32,0.33,0.33h1  c0.39,1.47,1.26,2.76,2.47,3.67c1.23,0.91,2.73,1.39,4.26,1.36h0.4h0.38h0.35l0.31-0.05l0.27-0.05l0.22-0.06h0.17l0.11-0.2l0,0  c0.08-0.03,0.14-0.08,0.18-0.15c0.03-0.07,0.03-0.16,0-0.23l-0.36-1.66l0,0L16.92,16.93z" style="fill: rgb(76, 112, 144);" vector-effect="non-scaling-stroke"/></g></svg>