<svg version="1.2" xmlns="http://www.w3.org/2000/svg" xmlns:xlink="http://www.w3.org/1999/xlink" overflow="visible" preserveAspectRatio="none" viewBox="0 0 24 24" width="32" height="32">
<g fill="#000">
<path xmlns:default="http://www.w3.org/2000/svg" id="stack-overflow" d="M17.42,19.67v-5h1.67v6.66h-15v-6.65h1.69v5L17.42,19.67L17.42,19.67z M15.76,15.91l0.34-1.62L8,12.57  l-0.38,1.64L15.76,15.91z M16.23,13.84l0.7-1.51L9.39,8.8l-0.7,1.52L16.23,13.84z M17.17,11.95l1.06-1.28l-6.39-5.34l-1.06,1.28  L17.17,11.95z M13.58,3.68l5,6.67l1.33-1l-5-6.67L13.58,3.68z M7.44,18.01h8.33v-1.67H7.44V18.01L7.44,18.01z" fill="#000000" fill-rule="nonzero" vector-effect="non-scaling-stroke"/>
</g>
</svg>